<svg width="160" height="160" viewBox="0 0 160 160" xmlns="http://www.w3.org/2000/svg">
    <defs>
        <filter x="-22.5%" y="-22.5%" width="145%" height="145%" filterUnits="objectBoundingBox" id="4spafszjfa">
            <feOffset dy="4" in="SourceAlpha" result="shadowOffsetOuter1"/>
            <feGaussianBlur stdDeviation="5" in="shadowOffsetOuter1" result="shadowBlurOuter1"/>
            <feColorMatrix values="0 0 0 0 0 0 0 0 0 0 0 0 0 0 0 0 0 0 0.201349432 0" in="shadowBlurOuter1" result="shadowMatrixOuter1"/>
            <feMerge>
                <feMergeNode in="shadowMatrixOuter1"/>
                <feMergeNode in="SourceGraphic"/>
            </feMerge>
        </filter>
    </defs>
    <g transform="translate(20 20)" filter="url(#4spafszjfa)" fill="none" fill-rule="evenodd">
        <circle fill="#49CF68" cx="60" cy="60" r="60"/>
        <path d="M49.764 81.951a5.09 5.09 0 0 1-3.856-1.75L30.544 62.638a5.124 5.124 0 0 1 .473-7.235 5.118 5.118 0 0 1 7.234.493l12.025 13.746L82.278 42.21a5.118 5.118 0 0 1 8.366 2.942 5.124 5.124 0 0 1-1.699 4.831L53.096 80.716a5.09 5.09 0 0 1-3.332 1.235z" fill="#FFF"/>
    </g>
</svg>