<svg width="64" height="64" viewBox="0 0 64 64" xmlns="http://www.w3.org/2000/svg">
    <path d="M9.377 54.623a31.975 31.975 0 0 1 0-45.246 31.975 31.975 0 0 1 45.246 0 31.975 31.975 0 0 1 0 45.246 31.975 31.975 0 0 1-45.246 0zm36.57-13.257L36.584 32l9.365-9.365a3.24 3.24 0 0 0-2.267-5.613 3.238 3.238 0 0 0-2.315 1.03L32 27.418l-9.365-9.366a3.24 3.24 0 0 0-5.613 2.267c.015.88.387 1.716 1.03 2.316L27.419 32l-9.365 9.365a3.24 3.24 0 0 0 2.267 5.613 3.238 3.238 0 0 0 2.315-1.03L32 36.582l9.366 9.366a3.24 3.24 0 0 0 5.613-2.267 3.238 3.238 0 0 0-1.031-2.316v.001z" fill="#FFDBD1" fill-rule="evenodd"/>
</svg>
