<svg width="64" height="64" viewBox="0 0 64 64" xmlns="http://www.w3.org/2000/svg">
    <path d="M32.226 32.008c8.836 0 15.998 7.163 15.998 15.998C48.224 56.84 41.062 64 32.226 64c-8.836 0-16.001-7.16-16.001-15.994s7.165-15.998 16.001-15.998zm.553 2.983c-8.024 0-13.279 6.356-13.279 13.682 0 7.039 5.183 11.312 11.077 11.312 2.183 0 3.86-.243 5.654-.937.48-.186 1.146-.9.994-1.395-.093-.301-.381-.705-.697-.777-.316-.072-.882-.03-1.191 0-.69.068-1.05.143-1.366.21l-.17.036c-.508.106-1.042.187-2.864.187-3.138 0-8.565-2.071-8.565-8.636 0-6.859 5.673-11.162 9.865-11.162 2.012 0 3.443.287 5.197 1.387 2.79 1.748 3.41 4.97 3.41 6.471 0 1.88-.33 2.983-1.148 4.213-.666 1-1.43 1.588-2.262 1.569-.993-.037-1.36-.98-1.203-1.916l1.203-5.368c.189-1.179-1.275-2.054-2.097-2.268-.852-.222-1.193-.363-2.13-.363-5.112 0-7.84 3.618-7.84 8 0 2.944 1.698 4.024 4.023 4.024 1.882 0 3.14-.278 4.24-2.11h.072c.177 1.904 1.384 2.766 3.053 2.766 3.834 0 6.745-3.304 6.745-8.547 0-6.033-4.473-10.378-10.721-10.378zm-.036 8.343c.42 0 1.898.107 1.772.617-.014.368-.251 1.32-.712 2.86-.692 2.307-2.065 3.985-3.89 3.985-1.825 0-2.154-.739-2.154-2.288 0-3.456 3.028-5.174 4.984-5.174zM0 3.78 30.972 22.31c.65.39 1.407.39 2.056 0L63.998 3.78v33.03a2.765 2.765 0 0 1-2.758 2.757H49.824c-2.972-6.9-9.836-11.732-17.823-11.732-7.992 0-14.855 4.832-17.824 11.732H2.758A2.765 2.765 0 0 1 0 36.81V3.78zM62.128.435 33.646 17.123a3 3 0 0 1-3.033 0L2.128.435c.494-.561.74-.419 1.57-.419h56.86c.83 0 1.076-.142 1.57.42z" fill="#FFF3F0" fill-rule="evenodd"/>
</svg>
