<svg width="64" height="64" viewBox="0 0 64 64" xmlns="http://www.w3.org/2000/svg">
    <path d="M16 11.429V2.286A2.286 2.286 0 0 1 18.286 0h27.428A2.286 2.286 0 0 1 48 2.286v9.143H16zm28.45 31.14 5.658 18.856A2 2 0 0 1 48.192 64H15.808a2 2 0 0 1-1.915-2.575l5.657-18.857a2 2 0 0 1 1.915-1.425h21.07a2 2 0 0 1 1.916 1.425zm-21.593 6.217c0 .397.241.78.67 1.06.428.282 1.01.44 1.616.44h13.714c.817 0 1.572-.286 1.98-.75.408-.464.408-1.036 0-1.5-.408-.464-1.163-.75-1.98-.75H25.143c-.606 0-1.188.158-1.616.439-.429.281-.67.663-.67 1.06zm20.572 6.857c0-.398-.241-.78-.67-1.06-.428-.282-1.01-.44-1.616-.44H22.857c-.817 0-1.571.286-1.98.75-.407.464-.407 1.036 0 1.5.409.464 1.163.75 1.98.75h18.286c.606 0 1.188-.158 1.616-.44.429-.28.67-.662.67-1.06zM64 22.857V43.43a6.859 6.859 0 0 1-6.857 6.857H51.52l-2.789-9.303a2.283 2.283 0 0 0 1.555-2.126A2.286 2.286 0 0 0 48 36.571H16a2.286 2.286 0 0 0-2.286 2.286 2.286 2.286 0 0 0 1.554 2.126l-2.788 9.303H6.857A6.859 6.859 0 0 1 0 43.429V22.857A6.859 6.859 0 0 1 6.857 16h50.286A6.859 6.859 0 0 1 64 22.857zm-45.714 2.286a2.289 2.289 0 0 0-.183-.869 2.059 2.059 0 0 0-1.235-1.234 2.287 2.287 0 0 0-1.325-.183l-.411.137-.411.206-.343.275a2.622 2.622 0 0 0-.48.754c-.124.288-.186.6-.184.914a3.107 3.107 0 0 0 0 .457c.025.143.072.282.138.411.05.146.119.284.205.412l.275.343.343.274.41.206.458.183H16c.299-.004.594-.066.869-.183.277-.116.532-.278.754-.48l.275-.343c.086-.128.155-.266.205-.412.082-.126.144-.265.183-.411a3.107 3.107 0 0 0 0-.457z" fill="#FFF3F0" fill-rule="evenodd"/>
</svg>
