<svg width="64" height="64" viewBox="0 0 64 64" xmlns="http://www.w3.org/2000/svg">
    <path d="M45.913 0H18.087c-1.614 0-3.163.562-4.304 1.562C12.64 2.562 12 3.918 12 5.333v53.334c0 1.414.641 2.77 1.783 3.771 1.141 1 2.69 1.562 4.304 1.562h27.826c1.614 0 3.163-.562 4.304-1.562 1.142-1 1.783-2.356 1.783-3.771V5.333c0-1.414-.641-2.77-1.783-3.771C49.076.562 47.527 0 45.913 0zm3.002 57.789c0 .978-.429 1.916-1.19 2.608-.762.691-1.796 1.08-2.873 1.08H18.846c-1.078 0-2.112-.389-2.873-1.08-.762-.692-1.19-1.63-1.19-2.608V6.164c0-.978.428-1.916 1.19-2.608.761-.691 1.795-1.08 2.873-1.08h26.006c1.077 0 2.11.389 2.873 1.08.761.692 1.19 1.63 1.19 2.608v51.625zM42.96 5.575h-3.489a.691.691 0 0 0-.698.685c0 .544-.22 1.066-.613 1.45a2.115 2.115 0 0 1-1.48.602h-9.77a2.115 2.115 0 0 1-1.48-.601 2.033 2.033 0 0 1-.613-1.451.678.678 0 0 0-.205-.484.704.704 0 0 0-.494-.2H20.63c-.555 0-1.087.215-1.48.6a2.032 2.032 0 0 0-.613 1.452v47.894c0 .545.22 1.067.613 1.452s.925.601 1.48.601H42.96c.555 0 1.088-.216 1.48-.601.393-.385.613-.907.613-1.452V7.628c0-.545-.22-1.067-.613-1.451a2.115 2.115 0 0 0-1.48-.602z" fill="#FFF3F0" fill-rule="evenodd"/>
</svg>
