<svg width="27" height="27" viewBox="0 0 27 27" xmlns="http://www.w3.org/2000/svg">
    <g fill="none" fill-rule="evenodd">
        <path d="M18.86 9.556a.997.997 0 0 1 1.4-.016l-.018-.015.068.075a.976.976 0 0 1 .01 1.2l-.081.094-2.48 2.5 2.48 2.5a.976.976 0 0 1 .071 1.294l-.068.073-.076.066a.998.998 0 0 1-1.305-.096l-2.454-2.475-2.452 2.475a.998.998 0 0 1-1.306.096l-.08-.069-.064-.07a.976.976 0 0 1-.01-1.201l.081-.093 2.48-2.5-2.48-2.5a.976.976 0 0 1-.071-1.294l.063-.072.08-.068a.998.998 0 0 1 1.307.096l2.452 2.474z" fill="#BC431A" fill-rule="nonzero"/>
        <path d="M22.014 5.583c.76 0 1.447.308 1.944.806.498.497.806 1.185.806 1.944v10.353c0 .76-.308 1.447-.806 1.945a2.741 2.741 0 0 1-1.944.805h-11.69a.75.75 0 0 1-.532-.222l-7.63-7.704 7.63-7.704a.75.75 0 0 1 .533-.223z" stroke="#BC431A" stroke-width="2.5"/>
    </g>
</svg>
