<svg width="40" height="40" viewBox="0 0 40 40" xmlns="http://www.w3.org/2000/svg">
    <path d="M5.86 34.14a19.984 19.984 0 0 1 0-28.28 19.984 19.984 0 0 1 28.28 0 19.984 19.984 0 0 1 0 28.28 19.984 19.984 0 0 1-28.28 0zm22.857-8.286L22.864 20l5.853-5.853a2.024 2.024 0 0 0 .052-2.916 2.025 2.025 0 0 0-2.915.052L20 17.136l-5.853-5.853a2.024 2.024 0 0 0-2.915-.052 2.025 2.025 0 0 0 .051 2.916L17.136 20l-5.853 5.853a2.024 2.024 0 0 0-.051 2.916 2.025 2.025 0 0 0 2.915-.052L20 22.864l5.854 5.853a2.024 2.024 0 0 0 2.915.052 2.025 2.025 0 0 0-.052-2.916v.001z" fill="#FFDBD1" fill-rule="evenodd"/>
</svg>
